<svg width="172" height="49" viewBox="0 0 172 49" fill="none" xmlns="http://www.w3.org/2000/svg">
<path d="M0.605225 22.7154V17.8576H31.1184V22.7154H0.605225ZM0.605225 31.5506V26.7535H31.1184V31.5506H0.605225Z" fill="#C2E978"/>
<path d="M74.869 24.1424C74.869 25.5593 74.7476 27.0166 74.5047 28.5144C74.2415 30.0122 73.8468 31.4595 73.3206 32.8561C72.7943 34.273 72.1365 35.6088 71.3471 36.8638C70.5577 38.139 69.6266 39.2421 68.5539 40.1732C67.4811 41.1245 66.2666 41.8734 64.9105 42.4199C63.5341 42.9664 62.0262 43.2397 60.3867 43.2397C58.7269 43.2397 57.219 42.9664 55.8628 42.4199C54.4864 41.8734 53.2619 41.1346 52.1891 40.2035C51.1163 39.2724 50.1853 38.1794 49.3959 36.9245C48.5862 35.6696 47.9183 34.3337 47.392 32.9168C46.8658 31.5 46.4812 30.0426 46.2383 28.5448C45.9752 27.047 45.8436 25.5795 45.8436 24.1424C45.8436 22.7863 45.9853 21.3694 46.2687 19.8918C46.552 18.4142 46.9771 16.967 47.5438 15.5501C48.0903 14.1333 48.7785 12.7873 49.6084 11.5121C50.418 10.2369 51.3694 9.12366 52.4624 8.17234C53.5351 7.22102 54.7395 6.46198 56.0754 5.89524C57.391 5.3285 58.8281 5.04512 60.3867 5.04512C61.9452 5.04512 63.3924 5.3285 64.7283 5.89524C66.044 6.46198 67.2382 7.22102 68.311 8.17234C69.3837 9.1439 70.3351 10.2673 71.1649 11.5424C71.9746 12.8176 72.6526 14.1636 73.1991 15.5805C73.7456 16.9974 74.1606 18.4345 74.444 19.8918L74.869 24.1424ZM70.0416 24.1424C70.0416 23.1911 69.9707 22.179 69.829 21.1063C69.6671 20.0335 69.4242 18.9607 69.1004 17.888C68.7563 16.8354 68.3312 15.8234 67.8252 14.8518C67.3192 13.9005 66.7119 13.0504 66.0035 12.3015C65.2748 11.5728 64.445 10.9858 63.5139 10.5405C62.5828 10.1155 61.5404 9.90293 60.3867 9.90293C59.2127 9.90293 58.1602 10.1155 57.2291 10.5405C56.298 10.9858 55.4783 11.5728 54.7698 12.3015C54.0411 13.0302 53.4238 13.8701 52.9178 14.8215C52.4118 15.793 51.9968 16.8051 51.673 17.8576C51.3289 18.9304 51.086 20.0031 50.9443 21.0759C50.7824 22.1487 50.7014 23.1708 50.7014 24.1424C50.7014 25.0937 50.7824 26.1058 50.9443 27.1785C51.086 28.2715 51.3289 29.3443 51.673 30.3968C51.9968 31.4696 52.4118 32.4918 52.9178 33.4633C53.4238 34.4349 54.0411 35.285 54.7698 36.0137C55.4783 36.7626 56.298 37.3496 57.2291 37.7746C58.1602 38.2199 59.2127 38.4426 60.3867 38.4426C61.5404 38.4426 62.5828 38.2199 63.5139 37.7746C64.445 37.3293 65.2748 36.7322 66.0035 35.9833C66.7119 35.2546 67.3192 34.4045 67.8252 33.433C68.3312 32.4614 68.7563 31.4392 69.1004 30.3665C69.4242 29.3139 69.6671 28.2513 69.829 27.1785L70.0416 24.1424Z" fill="#C2E978"/>
<path d="M86.1938 43.9076C86.1938 44.5351 86.0723 45.1221 85.8294 45.6686C85.5866 46.2151 85.2627 46.7009 84.8579 47.1259C84.4328 47.5307 83.947 47.8546 83.4005 48.0975C82.854 48.3404 82.267 48.4618 81.6396 48.4618C81.0121 48.4618 80.4251 48.3404 79.8786 48.0975C79.3321 47.8546 78.8565 47.5307 78.4516 47.1259C78.0266 46.7009 77.7027 46.2151 77.4801 45.6686C77.2372 45.1221 77.1157 44.5351 77.1157 43.9076C77.1157 43.2801 77.2372 42.6932 77.4801 42.1467C77.723 41.6204 78.057 41.1549 78.482 40.75C78.8868 40.3452 79.3625 40.0214 79.909 39.7785C80.4555 39.5558 81.0324 39.4445 81.6396 39.4445C82.267 39.4445 82.854 39.5558 83.4005 39.7785C83.947 40.0214 84.4328 40.3452 84.8579 40.75C85.2627 41.1549 85.5866 41.6204 85.8294 42.1467L86.1938 43.9076Z" fill="#C2E978"/>
<path d="M95.4236 44.4238L94.361 9.72077L92.2053 12.2711L88.4709 9.1439L94.2395 2.37333L98.9152 2.19116L100.281 44.2719L95.4236 44.4238Z" fill="#C2E978"/>
<path d="M106.293 41.9949C107.71 41.8329 109.046 41.4281 110.301 40.7804C111.535 40.1529 112.618 39.3332 113.549 38.3211C114.46 37.3293 115.179 36.1857 115.705 34.8903C116.231 33.6151 116.494 32.2489 116.494 30.7915C116.494 29.3342 116.221 27.9477 115.675 26.632C115.128 25.3366 114.389 24.1829 113.458 23.1708C112.507 22.179 111.404 21.3593 110.149 20.7116C108.874 20.0841 107.507 19.7096 106.05 19.5882L106.414 14.8215H106.839C107.588 14.8215 108.277 14.7101 108.904 14.4875C109.532 14.2648 110.078 13.941 110.544 13.5159C110.989 13.0909 111.343 12.5849 111.606 11.9979C111.869 11.4109 112.001 10.7531 112.001 10.0244C112.001 9.33619 111.879 8.6986 111.637 8.11162C111.394 7.52463 111.07 7.01861 110.665 6.59355C110.24 6.16849 109.744 5.83452 109.177 5.59163C108.59 5.34874 107.963 5.22729 107.295 5.22729C106.425 5.22729 105.635 5.41958 104.927 5.80416L102.559 1.64466C103.267 1.23984 104.036 0.926104 104.866 0.703454C105.676 0.501046 106.506 0.399841 107.356 0.399841C108.651 0.399841 109.876 0.652852 111.029 1.15887C112.183 1.68514 113.195 2.38345 114.065 3.25381C114.936 4.12416 115.624 5.14633 116.13 6.3203C116.616 7.49427 116.859 8.72896 116.859 10.0244C116.859 11.4008 116.585 12.7063 116.039 13.941C115.492 15.1959 114.703 16.2788 113.671 17.1897C114.845 17.9183 115.907 18.7786 116.859 19.7704C117.79 20.7622 118.589 21.8451 119.257 23.019C119.925 24.2132 120.441 25.4682 120.806 26.7838C121.15 28.1197 121.322 29.4759 121.322 30.8522C121.322 32.8966 120.947 34.8296 120.198 36.6513C119.429 38.4932 118.387 40.1226 117.071 41.5394C115.756 42.9765 114.217 44.1505 112.456 45.0613C110.695 45.9924 108.803 46.5592 106.779 46.7616L106.293 41.9949Z" fill="#C2E978"/>
<path d="M128.851 47.9457L123.569 2.49477L134.195 1.06779L134.833 5.80416L128.912 6.59355L129.459 11.5728L137.808 9.96366L138.689 14.7607L130.036 16.3699L133.011 42.2985L139.296 41.1144L140.115 45.9115L128.851 47.9457Z" fill="#C2E978"/>
<path d="M152.624 7.47403L148.951 7.23114L146.491 46.6401L141.634 46.3365L144.123 6.92752L140.449 6.65427L140.753 1.88755L152.958 2.67694L152.624 7.47403Z" fill="#C2E978"/>
<path d="M167.198 47.7028L164.89 15.4894L160.913 15.7323L163.16 48.0064L158.363 48.3404L155.205 2.79839L160.002 2.49477L160.609 10.9656L164.587 10.6316L163.979 2.19116L168.807 1.88755L171.995 47.3992L167.198 47.7028Z" fill="#C2E978"/>
</svg>
