<svg width="266" height="65" viewBox="0 0 266 65" fill="none" xmlns="http://www.w3.org/2000/svg">
<path d="M17.568 23.9613L17.0985 8.62963L16.1462 9.75637L14.4963 8.37477L17.0449 5.38355L19.1106 5.30307L19.7142 23.8942L17.568 23.9613ZM26.1044 23.7333C26.1044 24.0105 26.0507 24.2698 25.9434 24.5113C25.8361 24.7527 25.693 24.9673 25.5142 25.1551C25.3264 25.334 25.1118 25.477 24.8703 25.5844C24.6289 25.6917 24.3696 25.7453 24.0924 25.7453C23.8151 25.7453 23.5558 25.6917 23.3144 25.5844C23.0729 25.477 22.8628 25.334 22.6839 25.1551C22.4961 24.9673 22.3531 24.7527 22.2547 24.5113C22.1474 24.2698 22.0937 24.0105 22.0937 23.7333C22.0937 23.4561 22.1474 23.1967 22.2547 22.9553C22.362 22.7228 22.5096 22.5171 22.6973 22.3383C22.8762 22.1594 23.0863 22.0164 23.3278 21.909C23.5692 21.8107 23.8241 21.7615 24.0924 21.7615C24.3696 21.7615 24.6289 21.8107 24.8703 21.909C25.1118 22.0164 25.3264 22.1594 25.5142 22.3383C25.693 22.5171 25.8361 22.7228 25.9434 22.9553L26.1044 23.7333ZM30.2948 22.8882C30.9207 22.8167 31.5065 22.6378 32.052 22.3517C32.5974 22.0745 33.0714 21.7123 33.4738 21.2652C33.8762 20.827 34.1936 20.3262 34.4262 19.7629C34.6587 19.1995 34.7749 18.6004 34.7749 17.9655C34.7749 17.3395 34.6587 16.7269 34.4262 16.1278C34.1847 15.5376 33.8583 15.01 33.447 14.545C33.0267 14.08 32.5393 13.7044 31.9849 13.4183C31.4215 13.1321 30.8134 12.989 30.1606 12.989H28.4839L30.4826 4.5385H35.3517V6.64442H32.1593L31.1532 10.9904C31.9759 11.1514 32.7405 11.4465 33.447 11.8757C34.1445 12.3049 34.7525 12.8281 35.2712 13.4451C35.7899 14.0621 36.1967 14.7551 36.4918 15.5242C36.778 16.2932 36.9211 17.098 36.9211 17.9386C36.9211 18.8418 36.7556 19.7003 36.4248 20.514C36.0939 21.3367 35.6378 22.0611 35.0566 22.687C34.4753 23.3219 33.7957 23.8406 33.0177 24.243C32.2308 24.6543 31.3857 24.9047 30.4826 24.9942L30.2948 22.8882ZM52.5452 9.34055L53.1488 13.4853L50.5466 10.199L46.7773 12.0903L49.1113 8.57597L46.1469 5.57134L50.2112 6.69808L52.1562 2.96911L52.3306 7.19438L56.5022 7.85164L52.5452 9.34055ZM68.8131 23.9613L68.3437 8.62963L67.3913 9.75637L65.7414 8.37477L68.29 5.38355L70.3557 5.30307L70.9593 23.8942L68.8131 23.9613ZM86.2212 25.4636L84.0885 25.3563L84.7457 11.1245L82.9886 11.0441L82.3313 25.3027L80.212 25.1954L81.1107 5.06162L83.23 5.16893L83.069 8.8979L84.853 8.97838L85.014 5.22259L87.1602 5.3299L86.2212 25.4636ZM91.7127 11.3123L91.1896 22.8614L93.993 22.7675L94.0467 24.8868L88.963 25.021L89.8617 4.80677L94.6235 4.9409L94.543 7.06024L91.9005 7.00659L91.7932 9.20641L95.549 9.0991L95.6027 11.205L91.7127 11.3123ZM106.111 22.3114C106.004 22.7496 105.865 23.1654 105.695 23.5589C105.516 23.9524 105.297 24.2967 105.038 24.5918C104.778 24.8868 104.465 25.1194 104.099 25.2893C103.723 25.4592 103.285 25.5441 102.784 25.5441C102.248 25.5441 101.769 25.4055 101.349 25.1283C100.929 24.8511 100.558 24.4755 100.236 24.0016C99.9048 23.5276 99.6231 22.9777 99.3906 22.3517C99.1492 21.7257 98.948 21.064 98.787 20.3665C98.6171 19.6779 98.483 18.9715 98.3846 18.2471C98.2773 17.5318 98.1968 16.8432 98.1432 16.1815C98.0806 15.5197 98.0404 14.9072 98.0225 14.3438C97.9956 13.7804 97.9822 13.311 97.9822 12.9354C97.9822 12.533 97.9912 12.0456 98.0091 11.4733C98.0269 10.901 98.0761 10.3019 98.1566 9.67589C98.2371 9.04992 98.3578 8.42843 98.5188 7.8114C98.6708 7.20332 98.8809 6.65337 99.1492 6.16154C99.4175 5.66971 99.7528 5.27177 100.155 4.96773C100.558 4.66369 101.049 4.51167 101.631 4.51167C102.185 4.51167 102.637 4.64133 102.985 4.90066C103.334 5.15999 103.607 5.49086 103.804 5.89326C103.991 6.29567 104.121 6.73832 104.193 7.22121C104.264 7.70409 104.3 8.16463 104.3 8.6028C104.3 8.75482 104.296 8.8979 104.287 9.03204C104.278 9.17511 104.273 9.32266 104.273 9.47468L102.181 9.34055V8.96497C102.181 8.79506 102.176 8.60727 102.167 8.4016C102.149 8.20487 102.131 7.99919 102.114 7.78458C102.087 7.5789 102.051 7.38664 102.006 7.20779C101.962 7.03789 101.903 6.89481 101.832 6.77856C101.76 6.67125 101.675 6.6176 101.577 6.6176C101.327 6.6176 101.117 6.73832 100.947 6.97976C100.777 7.22121 100.638 7.52525 100.531 7.89188C100.415 8.26746 100.325 8.68328 100.263 9.13934C100.2 9.5954 100.155 10.0381 100.128 10.4673C100.102 10.8965 100.088 11.2855 100.088 11.6343C100.079 11.983 100.075 12.2423 100.075 12.4122C100.075 12.6179 100.084 12.9354 100.102 13.3646C100.119 13.7938 100.151 14.2857 100.195 14.8401C100.231 15.3945 100.285 15.9892 100.356 16.6241C100.428 17.268 100.517 17.9073 100.625 18.5422C100.723 19.1771 100.839 19.7852 100.973 20.3665C101.108 20.9567 101.264 21.4753 101.443 21.9225C101.622 22.3785 101.823 22.7407 102.047 23.009C102.27 23.2772 102.516 23.4114 102.784 23.4114C102.999 23.4114 103.178 23.3577 103.321 23.2504C103.464 23.152 103.585 23.0224 103.683 22.8614C103.772 22.7094 103.844 22.5395 103.898 22.3517C103.942 22.1639 103.983 21.9851 104.018 21.8151L106.111 22.3114ZM110.449 7.24803L111.549 24.6454L109.403 24.7795L108.303 7.36876L106.68 7.47606L106.545 5.3299L111.924 4.99456L112.072 7.14072L110.449 7.24803ZM120.327 25.2758L119.616 16.7046L117.858 16.5973L115.927 24.7259L113.875 24.2296L118.382 4.96773L120.796 4.9409L122.446 25.1149L120.327 25.2758ZM119.146 10.9904L118.355 14.4779L119.455 14.5316L119.146 10.9904ZM133.316 21.842C133.316 22.4501 133.298 23.0537 133.263 23.6528C133.218 24.2519 133.151 24.8556 133.061 25.4636L130.955 25.1685C131.116 24.015 131.197 22.8435 131.197 21.6542C131.197 20.7689 131.143 19.8747 131.036 18.9715C130.929 18.0772 130.763 17.1875 130.54 16.3022C130.316 15.4258 130.03 14.5718 129.681 13.7402C129.332 12.9175 128.912 12.1395 128.42 11.4062H127.763L126.972 24.8332L124.825 24.6991L126.059 4.4446C126.364 4.31941 126.672 4.20763 126.985 4.10926C127.298 4.0109 127.62 3.96171 127.951 3.96171C128.46 3.96171 128.943 4.05561 129.399 4.2434C129.855 4.43119 130.258 4.69052 130.607 5.02138C130.946 5.35225 131.219 5.74124 131.425 6.18836C131.622 6.63548 131.72 7.11837 131.72 7.63703C131.72 8.19145 131.608 8.71905 131.385 9.21982C131.161 9.72954 130.835 10.1632 130.405 10.5209C130.915 11.3526 131.358 12.2289 131.733 13.15C132.1 14.0711 132.4 15.0145 132.632 15.9803C132.865 16.946 133.039 17.9207 133.155 18.9044L133.316 21.842ZM129.601 7.6102C129.601 7.41347 129.56 7.22568 129.48 7.04683C129.399 6.86798 129.292 6.70702 129.158 6.56394C129.015 6.42981 128.854 6.31803 128.675 6.2286C128.487 6.14812 128.295 6.10341 128.098 6.09447L127.897 9.26007C128.398 9.26007 128.809 9.11252 129.131 8.81742L129.601 7.6102ZM138.446 11.3123L137.922 22.8614L140.726 22.7675L140.779 24.8868L135.696 25.021L136.594 4.80677L141.356 4.9409L141.276 7.06024L138.633 7.00659L138.526 9.20641L142.282 9.0991L142.335 11.205L138.446 11.3123ZM157.986 9.34055L158.59 13.4853L155.988 10.199L152.219 12.0903L154.553 8.57597L151.588 5.57134L155.652 6.69808L157.597 2.96911L157.772 7.19438L161.943 7.85164L157.986 9.34055ZM177.246 7.82482C177.246 8.31665 177.156 8.78165 176.977 9.21982C176.798 9.658 176.553 10.0425 176.24 10.3734C175.927 10.7132 175.56 10.9859 175.14 11.1916C174.71 11.3973 174.25 11.5135 173.758 11.5404L174.67 24.9673L172.551 25.1149L171.183 4.88725C171.567 4.66369 171.952 4.4759 172.336 4.32388C172.721 4.17186 173.141 4.09585 173.597 4.09585C174.098 4.09585 174.572 4.19869 175.019 4.40436C175.457 4.61004 175.842 4.88278 176.172 5.22259C176.503 5.5624 176.767 5.95586 176.964 6.40298L177.246 7.82482ZM175.14 7.79799C175.14 7.55654 175.095 7.33746 175.006 7.14072C174.907 6.95294 174.777 6.79197 174.617 6.65784C174.456 6.5237 174.272 6.42086 174.067 6.34933C173.852 6.27779 173.633 6.24202 173.409 6.24202L173.624 9.3942C173.839 9.38526 174.04 9.33608 174.228 9.24665C174.406 9.16617 174.567 9.05439 174.71 8.91131C174.845 8.76824 174.952 8.59833 175.032 8.4016L175.14 7.79799ZM180.738 24.7527L179.612 4.59215L181.731 4.4446L182.764 22.5261L185.406 22.4456L185.487 24.5918L180.738 24.7527ZM198.208 15.0011C198.208 15.627 198.155 16.2709 198.047 16.9326C197.931 17.5944 197.757 18.2337 197.524 18.8508C197.292 19.4767 197.001 20.0669 196.652 20.6213C196.304 21.1847 195.892 21.6721 195.418 22.0834C194.944 22.5037 194.408 22.8346 193.809 23.076C193.201 23.3175 192.534 23.4382 191.81 23.4382C191.077 23.4382 190.411 23.3175 189.811 23.076C189.203 22.8346 188.662 22.5082 188.188 22.0968C187.714 21.6855 187.303 21.2026 186.954 20.6482C186.597 20.0937 186.302 19.5035 186.069 18.8776C185.837 18.2516 185.667 17.6078 185.559 16.946C185.443 16.2843 185.385 15.636 185.385 15.0011C185.385 14.3751 185.443 13.7312 185.559 13.0695C185.676 12.4078 185.854 11.7639 186.096 11.138C186.328 10.512 186.623 9.9218 186.981 9.36737C187.33 8.81295 187.741 8.32559 188.215 7.9053C188.689 7.49395 189.226 7.16755 189.825 6.92611C190.424 6.68466 191.086 6.56394 191.81 6.56394C192.516 6.56394 193.169 6.68466 193.768 6.92611C194.359 7.17649 194.891 7.51183 195.365 7.93212C195.839 8.35242 196.254 8.83977 196.612 9.3942C196.97 9.95757 197.269 10.5522 197.511 11.1782C197.743 11.8042 197.918 12.4435 198.034 13.0963L198.208 15.0011ZM196.076 15.0011C196.076 14.5808 196.044 14.1337 195.982 13.6597C195.91 13.1858 195.803 12.7118 195.66 12.2379C195.508 11.7729 195.32 11.3258 195.096 10.8965C194.873 10.4762 194.604 10.1006 194.292 9.76978C193.97 9.44786 193.603 9.18853 193.192 8.99179C192.78 8.804 192.32 8.71011 191.81 8.71011C191.291 8.71011 190.826 8.804 190.415 8.99179C190.004 9.18853 189.641 9.44786 189.328 9.76978C189.007 10.0917 188.734 10.4628 188.51 10.8831C188.287 11.3123 188.103 11.7595 187.96 12.2245C187.808 12.6984 187.701 13.1724 187.638 13.6463C187.567 14.1202 187.531 14.5718 187.531 15.0011C187.531 15.4214 187.567 15.8685 187.638 16.3424C187.701 16.8253 187.808 17.2993 187.96 17.7643C188.103 18.2382 188.287 18.6898 188.51 19.119C188.734 19.5483 189.007 19.9238 189.328 20.2458C189.641 20.5766 190.004 20.836 190.415 21.0237C190.826 21.2205 191.291 21.3188 191.81 21.3188C192.32 21.3188 192.78 21.2205 193.192 21.0237C193.603 20.827 193.97 20.5632 194.292 20.2323C194.604 19.9104 194.873 19.5348 195.096 19.1056C195.32 18.6764 195.508 18.2248 195.66 17.7508C195.803 17.2858 195.91 16.8164 195.982 16.3424L196.076 15.0011ZM202.546 7.24803L203.646 24.6454L201.5 24.7795L200.4 7.36876L198.777 7.47606L198.643 5.3299L204.022 4.99456L204.169 7.14072L202.546 7.24803ZM219.86 25.2758L219.149 16.7046L217.392 16.5973L215.461 24.7259L213.408 24.2296L217.915 4.96773L220.33 4.9409L221.98 25.1149L219.86 25.2758ZM218.68 10.9904L217.889 14.4779L218.989 14.5316L218.68 10.9904ZM232.85 21.842C232.85 22.4501 232.832 23.0537 232.796 23.6528C232.752 24.2519 232.685 24.8556 232.595 25.4636L230.489 25.1685C230.65 24.015 230.731 22.8435 230.731 21.6542C230.731 20.7689 230.677 19.8747 230.57 18.9715C230.462 18.0772 230.297 17.1875 230.073 16.3022C229.85 15.4258 229.564 14.5718 229.215 13.7402C228.866 12.9175 228.446 12.1395 227.954 11.4062H227.297L226.505 24.8332L224.359 24.6991L225.593 4.4446C225.897 4.31941 226.206 4.20763 226.519 4.10926C226.832 4.0109 227.154 3.96171 227.485 3.96171C227.994 3.96171 228.477 4.05561 228.933 4.2434C229.389 4.43119 229.792 4.69052 230.141 5.02138C230.48 5.35225 230.753 5.74124 230.959 6.18836C231.156 6.63548 231.254 7.11837 231.254 7.63703C231.254 8.19145 231.142 8.71905 230.919 9.21982C230.695 9.72954 230.369 10.1632 229.939 10.5209C230.449 11.3526 230.892 12.2289 231.267 13.15C231.634 14.0711 231.933 15.0145 232.166 15.9803C232.398 16.946 232.573 17.9207 232.689 18.9044L232.85 21.842ZM229.135 7.6102C229.135 7.41347 229.094 7.22568 229.014 7.04683C228.933 6.86798 228.826 6.70702 228.692 6.56394C228.549 6.42981 228.388 6.31803 228.209 6.2286C228.021 6.14812 227.829 6.10341 227.632 6.09447L227.431 9.26007C227.932 9.26007 228.343 9.11252 228.665 8.81742L229.135 7.6102ZM237.979 11.3123L237.456 22.8614L240.26 22.7675L240.313 24.8868L235.23 25.021L236.128 4.80677L240.89 4.9409L240.81 7.06024L238.167 7.00659L238.06 9.20641L241.816 9.0991L241.869 11.205L237.979 11.3123ZM249.333 25.2758L248.622 16.7046L246.865 16.5973L244.933 24.7259L242.881 24.2296L247.388 4.96773L249.802 4.9409L251.452 25.1149L249.333 25.2758ZM248.152 10.9904L247.361 14.4779L248.461 14.5316L248.152 10.9904Z" fill="white"/>
<path fill-rule="evenodd" clip-rule="evenodd" d="M264.289 32.969C211.895 30.3526 158.614 31.7998 106.088 31.3287C71.3548 31.0135 36.6191 30.2543 1.91105 30.0001C0.870449 29.9933 0.0146223 30.4407 0.000169567 31.0033C-0.0136548 31.5659 0.819569 32.0268 1.85954 32.0336C36.5638 32.2878 71.2957 33.047 106.025 33.3622C158.457 33.8333 211.637 32.3827 263.937 34.9957C264.974 35.0466 265.892 34.6365 265.992 34.0773C266.086 33.5181 265.32 33.0232 264.289 32.969Z" fill="white"/>
<path d="M52.309 61.7066L50.0287 61.5993L46.3534 47.7163L45.6425 61.4249L43.4963 61.2908L44.5694 41.3985L46.9033 41.5326L50.525 55.1608L51.2359 41.5997L53.3821 41.7338L52.309 61.7066ZM61.6502 58.2995C61.6323 58.7288 61.5384 59.1267 61.3685 59.4934C61.1897 59.8689 60.9572 60.1909 60.671 60.4591C60.3759 60.7363 60.0406 60.951 59.665 61.103C59.2805 61.2639 58.8736 61.3444 58.4444 61.3444C58.0151 61.3444 57.6082 61.2595 57.2237 61.0896C56.8303 60.9286 56.486 60.705 56.1909 60.4189C55.8958 60.1327 55.6633 59.7974 55.4934 59.4129C55.3145 59.0284 55.2251 58.6125 55.2251 58.1654V57.991L56.0702 41.5729L58.1895 41.6802L57.3713 58.0983C57.3892 58.4471 57.5009 58.7154 57.7066 58.9032C57.9123 59.0999 58.1671 59.1983 58.4712 59.1983C58.7573 59.1983 59.0033 59.1044 59.2089 58.9166C59.4057 58.7377 59.513 58.4963 59.5309 58.1922L60.3625 41.7875L62.4818 41.8948L61.6502 58.2995ZM72.145 61.4517L71.5682 47.7967L70.4951 51.1233L68.5904 51.2038L67.249 47.9979L67.8258 61.6529L65.6796 61.7334L64.8346 41.8143L66.9271 41.7338L69.3952 47.609L71.3401 41.5326L73.4327 41.4521L74.2777 61.3444L72.145 61.4517ZM84.692 54.6913C84.692 55.8896 84.4818 56.9314 84.0616 57.8167C83.6413 58.7109 83.069 59.4531 82.3446 60.0433C81.6113 60.6335 80.7573 61.0762 79.7826 61.3713C78.799 61.6664 77.7527 61.8139 76.6439 61.8139V41.9753C77.0284 41.7875 77.4174 41.622 77.8108 41.479C78.2043 41.3359 78.6201 41.2643 79.0583 41.2643C79.6396 41.2643 80.194 41.3761 80.7216 41.5997C81.2402 41.8232 81.6963 42.1228 82.0898 42.4984C82.4743 42.8829 82.7828 43.3345 83.0153 43.8532C83.2389 44.3718 83.3506 44.9262 83.3506 45.5164C83.3506 46.1871 83.1986 46.8176 82.8946 47.4077C82.5816 47.9979 82.1658 48.4942 81.6471 48.8967C82.1121 49.2275 82.5324 49.6076 82.908 50.0368C83.2836 50.466 83.6055 50.9266 83.8738 51.4184C84.1331 51.9192 84.3343 52.4468 84.4774 53.0012L84.692 54.6913ZM82.5458 54.6913C82.5458 54.119 82.4519 53.5735 82.2641 53.0549C82.0763 52.5362 81.817 52.0622 81.4862 51.633C81.1553 51.2127 80.7618 50.8506 80.3058 50.5465C79.8408 50.2425 79.3355 50.0234 78.79 49.8893L78.8169 59.4799C79.3534 59.3458 79.8497 59.1222 80.3058 58.8093C80.7618 58.5052 81.1553 58.1431 81.4862 57.7228C81.817 57.3025 82.0763 56.833 82.2641 56.3143L82.5458 54.6913ZM81.2045 45.4896C81.2045 45.1945 81.1508 44.9173 81.0435 44.658C80.9273 44.4076 80.7752 44.1885 80.5874 44.0007C80.3907 43.8219 80.1627 43.6788 79.9034 43.5715C79.644 43.4642 79.3713 43.4105 79.0851 43.4105H78.7632L78.79 47.609C78.8347 47.6268 78.8795 47.6358 78.9242 47.6358H79.0583C79.3534 47.6358 79.6306 47.5777 79.8899 47.4614C80.1493 47.3541 80.3773 47.2021 80.574 47.0053C80.7708 46.8086 80.9273 46.5806 81.0435 46.3213L81.2045 45.4896ZM89.8079 48.4004L89.2848 59.9494L92.0882 59.8555L92.1419 61.9749L87.0581 62.109L87.9568 41.8948L92.7187 42.0289L92.6382 44.1483L89.9957 44.0946L89.8884 46.2944L93.6442 46.1871L93.6978 48.293L89.8079 48.4004ZM104.005 58.93C104.005 59.5381 103.987 60.1417 103.951 60.7408C103.906 61.34 103.839 61.9436 103.75 62.5516L101.644 62.2565C101.805 61.103 101.885 59.9315 101.885 58.7422C101.885 57.8569 101.832 56.9627 101.725 56.0595C101.617 55.1653 101.452 54.2755 101.228 53.3902C101.005 52.5138 100.718 51.6598 100.37 50.8282C100.021 50.0055 99.6007 49.2275 99.1089 48.4942H98.4516L97.6602 61.9212L95.514 61.7871L96.7481 41.5326C97.0521 41.4074 97.3606 41.2956 97.6736 41.1973C97.9866 41.0989 98.3085 41.0497 98.6394 41.0497C99.1491 41.0497 99.632 41.1436 100.088 41.3314C100.544 41.5192 100.947 41.7785 101.295 42.1094C101.635 42.4403 101.908 42.8293 102.114 43.2764C102.31 43.7235 102.409 44.2064 102.409 44.725C102.409 45.2795 102.297 45.8071 102.073 46.3078C101.85 46.8176 101.523 47.2513 101.094 47.609C101.604 48.4406 102.046 49.3169 102.422 50.238C102.789 51.1591 103.088 52.1025 103.321 53.0683C103.553 54.034 103.728 55.0088 103.844 55.9924L104.005 58.93ZM100.289 44.6982C100.289 44.5015 100.249 44.3137 100.169 44.1348C100.088 43.956 99.9808 43.795 99.8466 43.652C99.7035 43.5178 99.5426 43.406 99.3637 43.3166C99.1759 43.2361 98.9837 43.1914 98.7869 43.1825L98.5857 46.3481C99.0865 46.3481 99.4979 46.2005 99.8198 45.9054L100.289 44.6982ZM126.081 52.0891C126.081 52.715 126.027 53.3589 125.92 54.0206C125.804 54.6824 125.629 55.3217 125.397 55.9388C125.164 56.5647 124.874 57.1549 124.525 57.7094C124.176 58.2727 123.765 58.7601 123.291 59.1714C122.817 59.5917 122.28 59.9226 121.681 60.164C121.073 60.4055 120.407 60.5262 119.683 60.5262C118.949 60.5262 118.283 60.4055 117.684 60.164C117.076 59.9226 116.535 59.5962 116.061 59.1848C115.587 58.7735 115.176 58.2906 114.827 57.7362C114.469 57.1818 114.174 56.5916 113.942 55.9656C113.709 55.3396 113.539 54.6958 113.432 54.034C113.316 53.3723 113.257 52.724 113.257 52.0891C113.257 51.4631 113.316 50.8193 113.432 50.1575C113.548 49.4958 113.727 48.8519 113.968 48.226C114.201 47.6 114.496 47.0098 114.854 46.4554C115.202 45.901 115.614 45.4136 116.088 44.9933C116.562 44.582 117.098 44.2556 117.697 44.0141C118.297 43.7727 118.958 43.652 119.683 43.652C120.389 43.652 121.042 43.7727 121.641 44.0141C122.231 44.2645 122.763 44.5998 123.237 45.0201C123.711 45.4404 124.127 45.9278 124.485 46.4822C124.842 47.0456 125.142 47.6402 125.383 48.2662C125.616 48.8922 125.79 49.5316 125.906 50.1844L126.081 52.0891ZM123.948 52.0891C123.948 51.6688 123.917 51.2217 123.854 50.7477C123.783 50.2738 123.675 49.7998 123.532 49.3259C123.38 48.8609 123.192 48.4138 122.969 47.9845C122.745 47.5642 122.477 47.1887 122.164 46.8578C121.842 46.5359 121.476 46.2765 121.064 46.0798C120.653 45.892 120.192 45.7981 119.683 45.7981C119.164 45.7981 118.699 45.892 118.288 46.0798C117.876 46.2765 117.514 46.5359 117.201 46.8578C116.879 47.1797 116.606 47.5508 116.383 47.9711C116.159 48.4004 115.976 48.8475 115.833 49.3125C115.681 49.7864 115.574 50.2604 115.511 50.7343C115.439 51.2083 115.404 51.6598 115.404 52.0891C115.404 52.5094 115.439 52.9565 115.511 53.4304C115.574 53.9133 115.681 54.3873 115.833 54.8523C115.976 55.3262 116.159 55.7778 116.383 56.207C116.606 56.6363 116.879 57.0118 117.201 57.3338C117.514 57.6646 117.876 57.924 118.288 58.1118C118.699 58.3085 119.164 58.4069 119.683 58.4069C120.192 58.4069 120.653 58.3085 121.064 58.1118C121.476 57.915 121.842 57.6512 122.164 57.3204C122.477 56.9984 122.745 56.6229 122.969 56.1936C123.192 55.7644 123.38 55.3128 123.532 54.8389C123.675 54.3739 123.783 53.9044 123.854 53.4304L123.948 52.0891ZM130.727 48.7893L131.116 62.2834L128.97 62.337L128.447 42.1094L133.169 41.8948L133.276 44.0409L130.62 44.1751L130.7 46.67L134.295 46.6163L134.322 48.7893H130.727ZM148.39 56.5692C148.39 57.222 148.278 57.8211 148.055 58.3666C147.822 58.9121 147.505 59.3816 147.103 59.775C146.7 60.1685 146.226 60.4725 145.681 60.6872C145.126 60.9107 144.527 61.0225 143.883 61.0225L143.95 58.9032C144.308 58.9032 144.63 58.845 144.916 58.7288C145.202 58.6125 145.448 58.4516 145.654 58.2459C145.851 58.0402 146.007 57.7898 146.123 57.4947C146.231 57.2086 146.284 56.8911 146.284 56.5424C146.284 56.3188 146.262 56.0953 146.217 55.8717C146.164 55.6571 146.11 55.438 146.056 55.2144L143.776 47.0858C143.704 46.8533 143.651 46.6119 143.615 46.3615C143.579 46.12 143.561 45.8786 143.561 45.6372C143.561 45.0917 143.66 44.5954 143.856 44.1483C144.044 43.7101 144.308 43.3256 144.648 42.9947C144.979 42.6728 145.372 42.4134 145.828 42.2167C146.284 42.0289 146.772 41.9127 147.29 41.868L147.492 43.9873C147.241 44.0052 147.009 44.0499 146.794 44.1214C146.57 44.193 146.378 44.2958 146.217 44.4299C146.047 44.5641 145.918 44.7295 145.828 44.9262C145.73 45.123 145.681 45.3599 145.681 45.6372C145.681 45.7892 145.694 45.9367 145.721 46.0798C145.739 46.2318 145.77 46.3749 145.815 46.509L148.122 54.6377C148.202 54.9506 148.27 55.2681 148.323 55.59L148.39 56.5692ZM153.506 48.4004L152.983 59.9494L155.786 59.8555L155.84 61.9749L150.756 62.109L151.655 41.8948L156.417 42.0289L156.336 44.1483L153.694 44.0946L153.587 46.2944L157.342 46.1871L157.396 48.293L153.506 48.4004ZM175.537 51.4855C175.537 52.2635 175.47 53.0504 175.335 53.8463C175.201 54.6421 174.996 55.4112 174.718 56.1534C174.432 56.9045 174.079 57.6155 173.659 58.2861C173.229 58.9568 172.72 59.5649 172.13 60.1104C172.246 60.5664 172.34 61.027 172.411 61.492C172.483 61.9659 172.51 62.4399 172.492 62.9138V63.1821H170.372C170.372 62.574 170.319 61.9793 170.211 61.3981C169.809 61.5948 169.389 61.7379 168.951 61.8273C168.512 61.9257 168.074 61.9749 167.636 61.9749C166.76 61.9749 165.959 61.8184 165.235 61.5054C164.502 61.2013 163.844 60.7855 163.263 60.2579C162.682 59.7303 162.172 59.1178 161.734 58.4203C161.296 57.7228 160.934 56.985 160.648 56.207C160.352 55.4291 160.133 54.6332 159.99 53.8194C159.847 53.0146 159.776 52.2366 159.776 51.4855C159.776 50.7433 159.852 49.9697 160.004 49.1649C160.147 48.3601 160.366 47.5687 160.661 46.7907C160.956 46.0127 161.327 45.2705 161.774 44.5641C162.212 43.8666 162.722 43.254 163.303 42.7264C163.885 42.1988 164.537 41.7785 165.262 41.4655C165.986 41.1526 166.778 40.9961 167.636 40.9961C168.503 40.9961 169.304 41.1481 170.037 41.4521C170.761 41.7651 171.419 42.1854 172.009 42.713C172.59 43.2406 173.104 43.8532 173.551 44.5507C173.99 45.2482 174.356 45.9859 174.651 46.7639C174.946 47.5419 175.17 48.3333 175.322 49.1381L175.537 51.4855ZM173.404 51.4855C173.404 50.94 173.355 50.3498 173.256 49.7149C173.149 49.0889 172.992 48.4674 172.787 47.8504C172.581 47.2334 172.322 46.6387 172.009 46.0664C171.687 45.503 171.316 45.0023 170.895 44.5641C170.466 44.1259 169.983 43.7771 169.447 43.5178C168.901 43.2585 168.298 43.1288 167.636 43.1288C166.983 43.1288 166.389 43.2585 165.852 43.5178C165.307 43.7771 164.824 44.1259 164.403 44.5641C163.974 45.0023 163.603 45.5075 163.29 46.0798C162.977 46.6521 162.718 47.2468 162.512 47.8638C162.306 48.4808 162.154 49.1023 162.056 49.7283C161.949 50.3543 161.895 50.94 161.895 51.4855C161.895 52.031 161.949 52.6167 162.056 53.2426C162.154 53.8686 162.306 54.4901 162.512 55.1071C162.718 55.7241 162.977 56.3143 163.29 56.8777C163.603 57.45 163.974 57.9553 164.403 58.3934C164.824 58.8316 165.307 59.1804 165.852 59.4397C166.389 59.699 166.983 59.8287 167.636 59.8287C167.976 59.8287 168.32 59.784 168.669 59.6946C169.009 59.6051 169.331 59.4799 169.635 59.319C169.474 58.9434 169.286 58.5857 169.071 58.2459C168.857 57.9061 168.606 57.5931 168.32 57.3069L169.796 55.7912C170.1 56.0953 170.377 56.4261 170.627 56.7838C170.878 57.1505 171.106 57.526 171.311 57.9106C171.678 57.4724 171.995 56.994 172.264 56.4753C172.523 55.9656 172.738 55.4335 172.908 54.8791C173.077 54.3336 173.203 53.7702 173.283 53.189L173.404 51.4855ZM184.368 58.2995C184.35 58.7288 184.256 59.1267 184.086 59.4934C183.908 59.8689 183.675 60.1909 183.389 60.4591C183.094 60.7363 182.758 60.951 182.383 61.103C181.998 61.2639 181.591 61.3444 181.162 61.3444C180.733 61.3444 180.326 61.2595 179.942 61.0896C179.548 60.9286 179.204 60.705 178.909 60.4189C178.614 60.1327 178.381 59.7974 178.211 59.4129C178.032 59.0284 177.943 58.6125 177.943 58.1654V57.991L178.788 41.5729L180.907 41.6802L180.089 58.0983C180.107 58.4471 180.219 58.7154 180.424 58.9032C180.63 59.0999 180.885 59.1983 181.189 59.1983C181.475 59.1983 181.721 59.1044 181.927 58.9166C182.124 58.7377 182.231 58.4963 182.249 58.1922L183.08 41.7875L185.2 41.8948L184.368 58.2995ZM200.376 52.0891C200.376 52.715 200.322 53.3589 200.215 54.0206C200.099 54.6824 199.924 55.3217 199.692 55.9388C199.459 56.5647 199.169 57.1549 198.82 57.7094C198.471 58.2727 198.06 58.7601 197.586 59.1714C197.112 59.5917 196.575 59.9226 195.976 60.164C195.368 60.4055 194.702 60.5262 193.978 60.5262C193.244 60.5262 192.578 60.4055 191.979 60.164C191.371 59.9226 190.83 59.5962 190.356 59.1848C189.882 58.7735 189.471 58.2906 189.122 57.7362C188.764 57.1818 188.469 56.5916 188.237 55.9656C188.004 55.3396 187.834 54.6958 187.727 54.034C187.611 53.3723 187.552 52.724 187.552 52.0891C187.552 51.4631 187.611 50.8193 187.727 50.1575C187.843 49.4958 188.022 48.8519 188.263 48.226C188.496 47.6 188.791 47.0098 189.149 46.4554C189.497 45.901 189.909 45.4136 190.383 44.9933C190.857 44.582 191.393 44.2556 191.992 44.0141C192.591 43.7727 193.253 43.652 193.978 43.652C194.684 43.652 195.337 43.7727 195.936 44.0141C196.526 44.2645 197.058 44.5998 197.532 45.0201C198.006 45.4404 198.422 45.9278 198.78 46.4822C199.137 47.0456 199.437 47.6402 199.678 48.2662C199.911 48.8922 200.085 49.5316 200.201 50.1844L200.376 52.0891ZM198.243 52.0891C198.243 51.6688 198.212 51.2217 198.149 50.7477C198.078 50.2738 197.97 49.7998 197.827 49.3259C197.675 48.8609 197.487 48.4138 197.264 47.9845C197.04 47.5642 196.772 47.1887 196.459 46.8578C196.137 46.5359 195.77 46.2765 195.359 46.0798C194.948 45.892 194.487 45.7981 193.978 45.7981C193.459 45.7981 192.994 45.892 192.583 46.0798C192.171 46.2765 191.809 46.5359 191.496 46.8578C191.174 47.1797 190.901 47.5508 190.678 47.9711C190.454 48.4004 190.271 48.8475 190.128 49.3125C189.976 49.7864 189.869 50.2604 189.806 50.7343C189.734 51.2083 189.699 51.6598 189.699 52.0891C189.699 52.5094 189.734 52.9565 189.806 53.4304C189.869 53.9133 189.976 54.3873 190.128 54.8523C190.271 55.3262 190.454 55.7778 190.678 56.207C190.901 56.6363 191.174 57.0118 191.496 57.3338C191.809 57.6646 192.171 57.924 192.583 58.1118C192.994 58.3085 193.459 58.4069 193.978 58.4069C194.487 58.4069 194.948 58.3085 195.359 58.1118C195.77 57.915 196.137 57.6512 196.459 57.3204C196.772 56.9984 197.04 56.6229 197.264 56.1936C197.487 55.7644 197.675 55.3128 197.827 54.8389C197.97 54.3739 198.078 53.9044 198.149 53.4304L198.243 52.0891ZM203.292 62.1761L202.742 42.0289L204.888 41.9753L205.438 62.109L203.292 62.1761ZM214.243 62.3639L213.532 53.7926L211.775 53.6853L209.843 61.8139L207.791 61.3176L212.298 42.0557L214.712 42.0289L216.362 62.2029L214.243 62.3639ZM213.062 48.0784L212.271 51.5659L213.371 51.6196L213.062 48.0784ZM223.007 56.5692C223.007 57.222 222.895 57.8211 222.672 58.3666C222.439 58.9121 222.122 59.3816 221.719 59.775C221.317 60.1685 220.843 60.4725 220.298 60.6872C219.743 60.9107 219.144 61.0225 218.5 61.0225L218.567 58.9032C218.925 58.9032 219.247 58.845 219.533 58.7288C219.819 58.6125 220.065 58.4516 220.271 58.2459C220.468 58.0402 220.624 57.7898 220.74 57.4947C220.848 57.2086 220.901 56.8911 220.901 56.5424C220.901 56.3188 220.879 56.0953 220.834 55.8717C220.78 55.6571 220.727 55.438 220.673 55.2144L218.393 47.0858C218.321 46.8533 218.268 46.6119 218.232 46.3615C218.196 46.12 218.178 45.8786 218.178 45.6372C218.178 45.0917 218.277 44.5954 218.473 44.1483C218.661 43.7101 218.925 43.3256 219.265 42.9947C219.596 42.6728 219.989 42.4134 220.445 42.2167C220.901 42.0289 221.389 41.9127 221.907 41.868L222.108 43.9873C221.858 44.0052 221.626 44.0499 221.411 44.1214C221.187 44.193 220.995 44.2958 220.834 44.4299C220.664 44.5641 220.535 44.7295 220.445 44.9262C220.347 45.123 220.298 45.3599 220.298 45.6372C220.298 45.7892 220.311 45.9367 220.338 46.0798C220.356 46.2318 220.387 46.3749 220.432 46.509L222.739 54.6377C222.819 54.9506 222.886 55.2681 222.94 55.59L223.007 56.5692Z" fill="white"/>
</svg>
